Coordinates
version=1
nRows=37
nColumns=34
inDegrees=no

Units are S.I. units (second, meters, Newtons, ...)
If the header above contains a line with 'inDegrees', this indicates whether rotational values are in degrees (yes) or radians (no).

endheader
time	pelvis_tilt	pelvis_list	pelvis_rotation	pelvis_tx	pelvis_ty	pelvis_tz	hip_flexion_r	hip_adduction_r	hip_rotation_r	knee_angle_r	ankle_angle_r	subtalar_angle_r	mtp_angle_r	hip_flexion_l	hip_adduction_l	hip_rotation_l	knee_angle_l	ankle_angle_l	subtalar_angle_l	mtp_angle_l	lumbar_extension	lumbar_bending	lumbar_rotation	arm_flex_r	arm_add_r	arm_rot_r	elbow_flex_r	pro_sup_r	arm_flex_l	arm_add_l	arm_rot_l	elbow_flex_l	pro_sup_l
0.45	0.179264	-0.05182	0.0397188	0.386887	1.0472	-0.268186	-0.371203	0.100429	-0.0847394	0.0947774	0.281477	0.0234315	-0.129736	0.303444	-0.11529	-0.170179	0.295788	0.0626017	0.109904	-0.129736	-0.442438	0.0884321	0.131948	0.183456	-0.333021	0.0264551	0.815041	1.6971	-0.210263	-0.233419	-0.152157	0.734954	1.57573
0.46	0.188353	-0.0502437	0.0506643	0.401363	1.04527	-0.26923	-0.404496	0.103665	-0.0994432	0.0804783	0.284211	0.027326	-0.129736	0.27174	-0.10521	-0.164569	0.20173	0.0641914	0.106419	-0.129736	-0.448597	0.0885212	0.122116	0.185791	-0.331255	0.0241802	0.821973	1.69793	-0.217561	-0.233959	-0.165323	0.729378	1.58593
0.47	0.176359	-0.0589946	0.0404286	0.413015	1.04149	-0.269503	-0.397992	0.107166	-0.0933181	0.0925504	0.300611	0.0384407	-0.129736	0.26699	-0.109969	-0.165528	0.11891	0.0597621	0.0943348	-0.129736	-0.439083	0.093379	0.135207	0.191537	-0.336905	0.0240996	0.829041	1.6981	-0.217282	-0.22696	-0.175659	0.717731	1.58885
0.48	0.186281	-0.057353	0.0490963	0.427735	1.03937	-0.270637	-0.428743	0.108999	-0.108521	0.0850864	0.30526	0.0473995	-0.129736	0.235651	-0.101826	-0.15985	0.0392629	0.0596775	0.0971594	-0.129736	-0.446044	0.0928549	0.127067	0.192887	-0.335029	0.0220728	0.836752	1.68663	-0.222352	-0.227237	-0.186028	0.711148	1.58879
0.49	0.165426	-0.067087	0.0377459	0.439715	1.03469	-0.270943	-0.407243	0.112084	-0.104806	0.10849	0.329392	0.0662646	-0.129736	0.250563	-0.11002	-0.162466	0	0.0636807	0.109872	-0.129736	-0.425934	0.0982935	0.139126	0.197734	-0.339212	0.0237118	0.837087	1.70131	-0.221439	-0.220068	-0.195618	0.695587	1.59851
0.5	0.167958	-0.069745	0.0446287	0.454486	1.0323	-0.272255	-0.422308	0.116747	-0.114056	0.11276	0.335282	0.0730823	-0.129736	0.242798	-0.109026	-0.150184	0	0.0734192	0.128437	-0.129736	-0.425463	0.102069	0.134414	0.197817	-0.338821	0.0258003	0.854503	1.59491	-0.221908	-0.221927	-0.188036	0.707581	1.43097
0.51	0.161846	-0.0688699	0.0354978	0.466401	1.02821	-0.271685	-0.418272	0.110561	-0.117111	0.134293	0.353806	0.0928452	-0.129736	0.253914	-0.109869	-0.157286	0	0.0860148	0.162059	-0.129736	-0.42247	0.0948196	0.138385	0.205309	-0.335571	0.0209949	0.847136	1.69395	-0.221066	-0.218311	-0.213209	0.66597	1.65142
0.52	0.170622	-0.0657458	0.0415029	0.48065	1.0263	-0.272757	-0.43992	0.108645	-0.125803	0.140434	0.355349	0.0998956	-0.129736	0.244685	-0.105523	-0.136722	0	0.0940309	0.184191	-0.129736	-0.430329	0.0915005	0.131746	0.206481	-0.331813	0.0170266	0.850799	1.69281	-0.21896	-0.219226	-0.21826	0.653282	1.66151
0.53	0.173479	-0.0696768	0.0356337	0.493007	1.02504	-0.274392	-0.443934	0.106375	-0.119855	0.163217	0.359765	0.109552	-0.129736	0.242652	-0.110431	-0.10725	0	0.094684	0.195377	-0.129736	-0.43735	0.0940202	0.141597	0.209164	-0.335699	0.0122716	0.854789	1.69044	-0.207066	-0.212282	-0.222233	0.635018	1.67299
0.54	0.191007	-0.0628147	0.0455998	0.50706	1.02393	-0.275898	-0.476434	0.101905	-0.130243	0.167808	0.350651	0.113527	-0.129736	0.226483	-0.101865	-0.07553	0	0.0960798	0.210622	-0.129736	-0.455353	0.0883224	0.13097	0.208812	-0.330438	0.00571673	0.859898	1.68793	-0.202924	-0.214366	-0.224979	0.624299	1.68395
0.55	0.189266	-0.0616633	0.0385124	0.519565	1.02178	-0.276896	-0.47371	0.0937988	-0.125871	0.194617	0.352413	0.121681	-0.129736	0.239989	-0.100768	-0.0573909	0.0370602	0.0964398	0.22788	-0.129736	-0.45712	0.0835169	0.136121	0.210823	-0.329744	0.00226188	0.863747	1.6818	-0.194703	-0.210994	-0.227496	0.610862	1.70676
0.56	0.201583	-0.0506168	0.0477304	0.535139	1.02088	-0.278703	-0.498518	0.0844671	-0.140473	0.203771	0.342396	0.130607	-0.129736	0.234987	-0.0859957	-0.0414358	0.0814853	0.0989948	0.258186	-0.129736	-0.466609	0.0733603	0.122712	0.206287	-0.322073	-0.00424369	0.865261	1.68187	-0.192847	-0.214307	-0.226133	0.604712	1.71638
0.57	0.196286	-0.047886	0.0397767	0.548548	1.01887	-0.280051	-0.489893	0.0729116	-0.138597	0.23556	0.341499	0.143024	-0.129736	0.250626	-0.0816228	-0.0368141	0.127712	0.0932061	0.275777	-0.129736	-0.462365	0.0668044	0.127752	0.20377	-0.320569	-0.00839617	0.866833	1.67611	-0.18597	-0.210957	-0.224105	0.59428	1.7407
0.58	0.207648	-0.03451	0.0464234	0.564803	1.01853	-0.281886	-0.511698	0.0596229	-0.153812	0.248971	0.325027	0.151724	-0.129736	0.240472	-0.06443	-0.0345616	0.160909	0.0850133	0.296301	-0.129736	-0.469791	0.053301	0.115281	0.195876	-0.311583	-0.016228	0.865751	1.68276	-0.185139	-0.214276	-0.22152	0.589838	1.77177
0.59	0.20236	-0.0291071	0.0369459	0.57882	1.01729	-0.28326	-0.499918	0.0437755	-0.153343	0.286176	0.316238	0.161542	-0.129736	0.249492	-0.0578419	-0.0433628	0.192199	0.0691175	0.302454	-0.129736	-0.464369	0.0432124	0.120197	0.190808	-0.308284	-0.0216242	0.864155	1.68212	-0.179103	-0.21169	-0.213603	0.585281	1.78362
0.6	0.204313	-0.0188241	0.034215	0.59415	1.01705	-0.284828	-0.49971	0.0270928	-0.16083	0.317806	0.296808	0.166854	-0.129736	0.246451	-0.0459282	-0.0547826	0.215368	0.0520761	0.307001	-0.129736	-0.463919	0.0298832	0.116635	0.183349	-0.301057	-0.0283159	0.860794	1.68171	-0.175871	-0.21233	-0.203854	0.585114	1.7916
0.61	0.205241	-0.00883258	0.0311814	0.609488	1.01716	-0.286411	-0.49466	0.0100014	-0.168003	0.354876	0.271784	0.167711	-0.129736	0.243703	-0.0348595	-0.0693348	0.236335	0.0360297	0.307818	-0.129736	-0.462339	0.0167118	0.112968	0.175694	-0.293307	-0.0350136	0.855797	1.6812	-0.172549	-0.212841	-0.192379	0.58693	1.79453
0.62	0.212266	0.00486372	0.0348951	0.625916	1.01814	-0.288319	-0.498472	-0.00724604	-0.183249	0.388757	0.236121	0.164119	-0.129736	0.23198	-0.0191646	-0.0816276	0.254829	0.0254066	0.308685	-0.129736	-0.465176	0.00185639	0.100929	0.166226	-0.28251	-0.0424777	0.849369	1.68097	-0.171735	-0.215774	-0.180362	0.592628	1.79334
0.63	0.20417	0.00945396	0.0267168	0.640044	1.01822	-0.289854	-0.468855	-0.0241259	-0.182265	0.446712	0.202604	0.152329	-0.129736	0.241906	-0.0147306	-0.0972332	0.281285	0.0207637	0.303347	-0.129736	-0.456121	-0.00715982	0.103248	0.160247	-0.276758	-0.0482585	0.841778	1.68121	-0.165445	-0.213039	-0.16805	0.59504	1.79305
0.64	0.209679	0.0226995	0.032411	0.656336	1.01971	-0.292154	-0.462785	-0.0425306	-0.198926	0.492461	0.154804	0.137803	-0.129736	0.231885	0.00161986	-0.102233	0.303015	0.025105	0.300067	-0.129736	-0.457701	-0.0204275	0.08841	0.150759	-0.265814	-0.0552753	0.833899	1.67915	-0.164209	-0.215387	-0.154522	0.604917	1.77552
0.65	0.200712	0.0268608	0.0268934	0.670305	1.02019	-0.293895	-0.424616	-0.0596012	-0.197322	0.560003	0.107501	0.110101	-0.129736	0.242376	0.00686409	-0.10849	0.331892	0.0356766	0.292528	-0.129736	-0.447926	-0.0279826	0.087516	0.144861	-0.259446	-0.0611579	0.824673	1.6837	-0.157343	-0.212665	-0.142377	0.610326	1.76729
0.66	0.206092	0.0413361	0.03454	0.686353	1.02208	-0.296581	-0.41187	-0.0814935	-0.214418	0.614681	0.0495332	0.0825827	-0.129736	0.229584	0.0267029	-0.102153	0.351219	0.0503733	0.284289	-0.129736	-0.450209	-0.0413333	0.0692163	0.135668	-0.248635	-0.0680409	0.815809	1.68726	-0.155292	-0.214429	-0.132578	0.620164	1.76465
0.67	0.197212	0.0455813	0.0300971	0.699992	1.02283	-0.298254	-0.368015	-0.0994407	-0.208756	0.68753	-0.00924144	0.0365453	-0.129736	0.236624	0.0331119	-0.101199	0.375422	0.0678332	0.2758	-0.129736	-0.441243	-0.0486594	0.0663239	0.130433	-0.242029	-0.0735989	0.806262	1.69278	-0.147331	-0.212186	-0.121064	0.627984	1.75247
0.68	0.202195	0.0611844	0.0374129	0.715601	1.02484	-0.301015	-0.349964	-0.125176	-0.221976	0.747108	-0.0736031	-0.00566307	-0.129736	0.219274	0.0552782	-0.0891486	0.386372	0.0841139	0.265128	-0.129736	-0.444296	-0.0627907	0.0467266	0.122049	-0.231928	-0.0798782	0.797428	1.69804	-0.144008	-0.213973	-0.111485	0.64028	1.7451
0.69	0.193713	0.0642477	0.0313098	0.728757	1.02568	-0.302149	-0.3022	-0.141882	-0.208144	0.819936	-0.141429	-0.0699993	-0.129736	0.221833	0.059573	-0.0894636	0.402601	0.102386	0.260772	-0.129736	-0.436505	-0.0696833	0.0449524	0.118033	-0.225498	-0.0854068	0.787289	1.70968	-0.13441	-0.212781	-0.098407	0.652345	1.71706
0.7	0.197959	0.0792796	0.0354334	0.743809	1.02761	-0.30455	-0.279408	-0.169055	-0.213474	0.879397	-0.209259	-0.125687	-0.129736	0.200971	0.0803937	-0.0796241	0.404721	0.116724	0.251948	-0.129736	-0.439617	-0.0839557	0.027515	0.110872	-0.216791	-0.0904034	0.778806	1.71273	-0.129245	-0.214688	-0.0886128	0.666725	1.7054
0.71	0.190305	0.0797484	0.0257686	0.756481	1.02847	-0.30484	-0.229394	-0.181446	-0.190696	0.946867	-0.281489	-0.201287	-0.129736	0.19968	0.0798486	-0.0867554	0.414157	0.134467	0.254447	-0.129736	-0.432834	-0.0896249	0.0291985	0.108341	-0.211275	-0.0936725	0.769654	1.71214	-0.117552	-0.214246	-0.0769914	0.67864	1.68765
0.72	0.195571	0.0931338	0.0257503	0.771032	1.03049	-0.306732	-0.205121	-0.2074	-0.18842	1.00081	-0.344435	-0.260625	-0.129736	0.174517	0.0977992	-0.0819416	0.408867	0.146341	0.248718	-0.129736	-0.437186	-0.103081	0.0153367	0.102523	-0.204559	-0.0969277	0.76097	1.71678	-0.109846	-0.216101	-0.0676037	0.691749	1.68497
0.73	0.190115	0.0900351	0.0131266	0.783232	1.03161	-0.306261	-0.156041	-0.21277	-0.15975	1.05905	-0.406477	-0.332807	-0.129736	0.168809	0.0917791	-0.0956494	0.413313	0.163396	0.257823	-0.129736	-0.432562	-0.105925	0.0204151	0.101517	-0.200523	-0.0981024	0.751087	1.71868	-0.0953644	-0.216313	-0.0557836	0.702012	1.67442
0.74	0.197735	0.100916	0.0114205	0.797346	1.03396	-0.30795	-0.133675	-0.235202	-0.154207	1.10435	-0.445973	-0.381585	-0.129736	0.138655	0.106944	-0.0930721	0.402074	0.172513	0.254249	-0.129736	-0.4393	-0.116453	0.00828364	0.0969295	-0.196292	-0.0984945	0.742657	1.71974	-0.084721	-0.21816	-0.0442587	0.714486	1.66489
0.75	0.194351	0.0938417	-0.00153358	0.809021	1.03546	-0.307093	-0.0871095	-0.232447	-0.124552	1.15239	-0.477912	-0.437648	-0.129736	0.129342	0.0960531	-0.110209	0.403145	0.188466	0.268765	-0.129736	-0.437012	-0.114914	0.0147729	0.0973138	-0.193904	-0.0974976	0.732685	1.71911	-0.0671658	-0.218905	-0.0309116	0.723166	1.65461
0.76	0.20467	0.101772	-0.0017297	0.822767	1.03829	-0.308939	-0.0689454	-0.250253	-0.120672	1.1877	-0.47998	-0.467265	-0.129736	0.094325	0.108611	-0.106522	0.387263	0.194549	0.266791	-0.129736	-0.446633	-0.120871	0.00201405	0.0936101	-0.191683	-0.0965424	0.724828	1.71522	-0.0536838	-0.220797	-0.0165854	0.735738	1.6321
0.77	0.202102	0.0919315	-0.013173	0.834005	1.04004	-0.308006	-0.0247437	-0.241016	-0.0937322	1.22551	-0.476433	-0.502404	-0.129736	0.0832083	0.0948616	-0.124579	0.386032	0.208725	0.284626	-0.129736	-0.445494	-0.115668	0.00832032	0.0947475	-0.190057	-0.0963539	0.714494	1.71812	-0.033617	-0.221811	-0.00379041	0.740276	1.64204
0.78	0.214204	0.0971379	-0.0105886	0.847547	1.04323	-0.310105	-0.0107209	-0.25416	-0.0937964	1.25008	-0.448016	-0.510705	-0.129736	0.044941	0.104936	-0.118383	0.366998	0.211847	0.283201	-0.129736	-0.456876	-0.117152	-0.00569828	0.0911202	-0.188894	-0.0966413	0.707611	1.71123	-0.0180899	-0.223608	0.0111987	0.751098	1.62271
0.79	0.210851	0.086718	-0.0201679	0.858593	1.04496	-0.309224	0.0324285	-0.241323	-0.0709834	1.27753	-0.425038	-0.526054	-0.129736	0.0340067	0.0911885	-0.135351	0.364017	0.223689	0.30078	-0.129736	-0.454852	-0.110548	-0.000226832	0.0916857	-0.18729	-0.0997262	0.697082	1.7271	0.00321392	-0.225247	0.0242861	0.754439	1.63703
0.8	0.222851	0.0898258	-0.0148013	0.872049	1.04818	-0.31149	0.0444054	-0.250232	-0.0753553	1.29139	-0.388203	-0.516996	-0.129736	-0.00466043	0.0990869	-0.125935	0.343502	0.224468	0.298141	-0.129736	-0.465851	-0.108607	-0.0153442	0.0871563	-0.186724	-0.102477	0.690937	1.73032	0.0195452	-0.226747	0.0366092	0.761303	1.64167
0.81	0.217606	0.0802868	-0.0221399	0.883074	1.04961	-0.310701	0.0874198	-0.235787	-0.057695	1.30851	-0.366616	-0.519229	-0.129736	-0.0139036	0.087084	-0.139879	0.339436	0.234434	0.313314	-0.129736	-0.461624	-0.102085	-0.0115325	0.0861419	-0.185307	-0.106075	0.684242	1.73331	0.0407286	-0.229207	0.049384	0.766619	1.64618
